<svg xmlns="http://www.w3.org/2000/svg" viewBox="0 0 64 64" fill="none">
  <rect width="64" height="64" rx="16" fill="#0F172A" />
  <circle cx="32" cy="32" r="24" fill="#1E293B" stroke="#334155" stroke-width="2" />
  <!-- Crescent Moon & Sparkle for Nyx (Night) -->
  <path d="M37 18C30.925 18 26 22.925 26 29C26 35.075 30.925 40 37 40C39.43 40 41.67 39.21 43.5 37.87C39.5 37.5 34 34.5 34 29C34 23.5 39.5 20.5 43.5 20.13C41.67 18.79 39.43 18 37 18Z" fill="#F97316" />
  <circle cx="21" cy="22" r="2" fill="#FDBA74" />
  <path d="M22 36L23.5 40L27.5 41.5L23.5 43L22 47L20.5 43L16.5 41.5L20.5 40L22 36Z" fill="#FB923C" />
</svg>
